<svg id="Icons" height="512" viewBox="0 0 60 60" width="512"
     xmlns="http://www.w3.org/2000/svg">
    <path d="m26.03 45h-22.03a3 3 0 0 1 -3-3v-38a3 3 0 0 1 3-3h46a3 3 0 0 1 3 3v22z"
          fill="#b0d3f0"/>
    <path d="m51.82 26.83-25.79 18.17h-15.3l28.55-27.32a2.442 2.442 0 0 1 3.41.03z"
          fill="#547580"/>
    <path d="m31.81 24.83-21.08 20.17h-6.73a3 3 0 0 1 -3-3v-4.91l20.28-19.41a2.442 2.442 0 0 1 3.41.03z"
          fill="#3f5c6c"/>
    <circle cx="11" cy="11" fill="#f0c419" r="5"/>
    <path d="m41 10.5a2.5 2.5 0 0 1 -2.5 2.5 2.542 2.542 0 0 1 -1.07-.24 3 3 0 0 1 -4.86 0 2.542 2.542 0 0 1 -1.07.24 2.5 2.5 0 0 1 0-5 2.734 2.734 0 0 1 .5.05v-.05a3 3 0 0 1 6 0v.05a2.734 2.734 0 0 1 .5-.05 2.5 2.5 0 0 1 2.5 2.5z"
          fill="#ecf0f1"/>
    <path d="m56.85 26h-11.42a3.542 3.542 0 0 0 -2.51 1.04l-15.88 15.88a3.531 3.531 0 0 0 0 5.01l10.03 10.03a3.531 3.531 0 0 0 5.01 0l15.88-15.88a3.542 3.542 0 0 0 1.04-2.51v-11.42a2.147 2.147 0 0 0 -2.15-2.15zm-2.58 8.27a2.5 2.5 0 1 1 0-3.54 2.517 2.517 0 0 1 0 3.54z"
          fill="#f0c419"/>
    <g fill="#e57e25">
        <path d="m38 44.571a1 1 0 0 1 -1-1v-4.571a1 1 0 0 1 1-1h4.571a1 1 0 0 1 0 2h-3.571v3.571a1 1 0 0 1 -1 1z"/>
        <path d="m46 48h-4.571a1 1 0 0 1 0-2h3.571v-3.571a1 1 0 0 1 2 0v4.571a1 1 0 0 1 -1 1z"/>
    </g>
</svg>